<svg width="1516" height="1258" viewBox="0 0 1516 1258" fill="none" xmlns="http://www.w3.org/2000/svg">
<path fill-rule="evenodd" clip-rule="evenodd" d="M901.5 57.5C901.5 25.7654 927.265 0 959 0C990.734 0 1016.5 25.7654 1016.5 57.5C1016.5 85.1199 996.983 108.218 971 113.744V189.256C996.983 194.782 1016.5 217.88 1016.5 245.5C1016.5 273.12 996.983 296.218 971 301.744V382.764C978.708 384.788 986.346 387.2 993.882 390H1319V360H1404V445H1319V415H1043.11C1082.79 441.213 1116.81 480.358 1139.33 532.766C1143.47 542.389 1146.79 551.855 1149.48 561H1214.48C1220.38 535.518 1243.24 516.5 1270.5 516.5C1297.76 516.5 1320.62 535.518 1326.52 561H1402.48C1408.38 535.518 1431.24 516.5 1458.5 516.5C1490.23 516.5 1516 542.266 1516 574C1516 605.735 1490.23 631.5 1458.5 631.5C1430.88 631.5 1407.78 611.983 1402.26 586H1326.74C1321.22 611.983 1298.12 631.5 1270.5 631.5C1242.88 631.5 1219.78 611.983 1214.26 586H1155.57C1159.19 604.375 1160.58 620.454 1161.62 632.496C1162.75 645.526 1163.46 653.831 1166.15 655.206C1166.8 655.535 1168.89 655.528 1172.17 655.517C1189.32 655.457 1238.75 655.285 1280.12 703.024C1287.58 711.639 1293.36 721.473 1297.48 732H1381V702H1466V787H1381V757H1304C1312.22 815.21 1276.44 881.182 1199.08 882.356C1198.7 882.361 1198.31 882.363 1059 882.363V937H1209.48C1215.38 911.518 1238.24 892.5 1265.5 892.5C1297.23 892.5 1323 918.265 1323 950C1323 981.735 1297.23 1007.5 1265.5 1007.5C1237.88 1007.5 1214.78 987.983 1209.26 962H1059V1005H1089V1090H1004V1005H1034V962H891V1144.72C915.978 1150.98 934.5 1173.59 934.5 1200.5C934.5 1232.23 908.735 1258 877 1258C845.266 1258 819.5 1232.23 819.5 1200.5C819.5 1172.53 839.519 1149.19 866 1144.05V962H825H800V882.364C769.186 882.365 740.926 882.37 715 882.374V988.719C739.978 994.978 758.5 1017.59 758.5 1044.5C758.5 1076.23 732.735 1102 701 1102C669.266 1102 643.5 1076.23 643.5 1044.5C643.5 1016.53 663.52 993.192 690 988.053V882.378C636.104 882.387 593.231 882.389 559 882.348V1007H534H422V1037H337V952H422V982H534V882.306C426.647 882.064 422.719 881.127 411.92 877.752C361.349 861.94 331.993 808.362 340.067 757H301.522C295.623 782.482 272.764 801.5 245.5 801.5C218.236 801.5 195.377 782.482 189.479 757H113.522C107.623 782.482 84.7644 801.5 57.5 801.5C25.7654 801.5 0 775.735 0 744C0 712.265 25.7654 686.5 57.5 686.5C85.1199 686.5 108.218 706.017 113.744 732H189.256C194.782 706.017 217.88 686.5 245.5 686.5C273.12 686.5 296.218 706.017 301.744 732H347.166C356.583 709.601 374.194 689 401.495 673.888C416.941 665.339 428.564 662.428 436.692 660.392C445.383 658.216 450.078 657.04 451.176 651.043C451.47 649.437 451.759 647.654 452.075 645.704C454.216 632.495 457.603 611.603 472.324 586H442V616H357V531H442V561H489.725C524.062 520.575 593.126 482.36 672.745 527.289C680.023 531.396 681.892 527.707 687.452 516.733C692.256 507.252 699.815 492.332 716 472.303V415H543.522C537.623 440.482 514.764 459.5 487.5 459.5C455.766 459.5 430 433.735 430 402C430 370.265 455.766 344.5 487.5 344.5C515.12 344.5 538.218 364.017 543.744 390H716H741V444.775C742.592 443.192 744.232 441.587 745.921 439.961C755.661 430.583 766.067 422.205 777 414.835V280H747V195H832V280H802V400.175C846.366 377.763 896.918 370.091 946 377.588V301.522C920.518 295.623 901.5 272.764 901.5 245.5C901.5 218.236 920.518 195.377 946 189.478V113.522C920.518 107.623 901.5 84.7644 901.5 57.5ZM930.25 57.5C930.25 41.6327 943.133 28.75 959 28.75C974.867 28.75 987.75 41.6327 987.75 57.5C987.75 73.3673 974.867 86.25 959 86.25C943.133 86.25 930.25 73.3673 930.25 57.5ZM825 937L825 882.363L1034 882.363V937H825ZM930.25 245.5C930.25 229.633 943.133 216.75 959 216.75C974.867 216.75 987.75 229.633 987.75 245.5C987.75 261.367 974.867 274.25 959 274.25C943.133 274.25 930.25 261.367 930.25 245.5ZM729.75 1044.5C729.75 1060.37 716.867 1073.25 701 1073.25C685.133 1073.25 672.25 1060.37 672.25 1044.5C672.25 1028.63 685.133 1015.75 701 1015.75C716.867 1015.75 729.75 1028.63 729.75 1044.5ZM1265.5 921.25C1281.37 921.25 1294.25 934.133 1294.25 950C1294.25 965.867 1281.37 978.75 1265.5 978.75C1249.63 978.75 1236.75 965.867 1236.75 950C1236.75 934.133 1249.63 921.25 1265.5 921.25ZM905.75 1200.5C905.75 1216.37 892.867 1229.25 877 1229.25C861.133 1229.25 848.25 1216.37 848.25 1200.5C848.25 1184.63 861.133 1171.75 877 1171.75C892.867 1171.75 905.75 1184.63 905.75 1200.5ZM28.75 744C28.75 759.867 41.6327 772.75 57.5 772.75C73.3673 772.75 86.25 759.867 86.25 744C86.25 728.133 73.3673 715.25 57.5 715.25C41.6327 715.25 28.75 728.133 28.75 744ZM216.75 744C216.75 759.867 229.633 772.75 245.5 772.75C261.367 772.75 274.25 759.867 274.25 744C274.25 728.133 261.367 715.25 245.5 715.25C229.633 715.25 216.75 728.133 216.75 744ZM1270.5 545.25C1286.37 545.25 1299.25 558.133 1299.25 574C1299.25 589.867 1286.37 602.75 1270.5 602.75C1254.63 602.75 1241.75 589.867 1241.75 574C1241.75 558.133 1254.63 545.25 1270.5 545.25ZM1487.25 574C1487.25 558.133 1474.37 545.25 1458.5 545.25C1442.63 545.25 1429.75 558.133 1429.75 574C1429.75 589.867 1442.63 602.75 1458.5 602.75C1474.37 602.75 1487.25 589.867 1487.25 574ZM487.5 430.75C471.633 430.75 458.75 417.867 458.75 402C458.75 386.133 471.633 373.25 487.5 373.25C503.367 373.25 516.25 386.133 516.25 402C516.25 417.867 503.367 430.75 487.5 430.75Z" fill="white"/>
</svg>
