<?xml version="1.0" encoding="UTF-8" standalone="no"?>
<!-- Created with Inkscape (http://www.inkscape.org/) -->

<svg
   version="1.1"
   id="svg1"
   width="392"
   height="434.666666"
   viewBox="0 0 392 434.66666"
   xmlns="http://www.w3.org/2000/svg"
   xmlns:svg="http://www.w3.org/2000/svg">
  <defs
     id="defs1" />
  <g
     id="g1">
    <path
       style="fill:currentColor;fill-opacity:1"
       d="m 45.871949,434.12656 c 0,-0.4585 1.76605,-3.97454 3.92455,-7.81343 2.1585,-3.8389 5.3085,-11.77981 7,-17.64647 2.85947,-9.91758 3.07222,-13.05439 3.02944,-44.66667 -0.0456,-33.69808 -1.37238,-49.86568 -6.67453,-81.33333 -4.57434,-27.14814 -8.59514,-53.63835 -10.01777,-66 -1.7865,-15.52334 -2.8138,-71.58862 -1.4903,-81.33333 0.90546,-6.66667 0.90546,-6.66667 2.4262,1.34449 7.03092,37.03828 34.96659,69.69086 81.006481,94.68435 22.77358,12.363 39.5065,37.85972 45.59227,69.47099 2.97811,15.46923 3.02289,46.74034 0.0859,59.9874 -8.33099,37.57621 -28.44606,61.23102 -60.21557,70.81194 -6.78396,2.04588 -64.666671,4.2783 -64.666671,2.49406 z m 283.333341,-0.82837 c -13.14075,-2.65188 -22.72567,-9.7356 -27.5198,-20.33847 -3.14687,-6.95973 -3.14687,-6.95973 -3.81354,-84.07861 -0.66666,-77.11888 -0.66666,-77.11888 -3.81438,-79.66666 -2.8504,-2.30715 -5.52652,-2.54779 -28.33333,-2.54779 -25.18562,0 -25.18562,0 -25.20847,-5 -0.0363,-7.95421 -4.77825,-24.15458 -10.20016,-34.84815 -3.17004,-6.25223 -8.59486,-13.67667 -14.85697,-20.33333 C 205.59493,176 205.59493,176 247.65909,176 c 42.06416,0 42.06416,0 45.80518,-3.21734 3.74102,-3.21733 3.74102,-3.21733 4.10508,-82.666662 0.36407,-79.449332 0.36407,-79.449332 40.38645,-79.449332 37.45626,0 40.35918,0.171819 45.27513,2.679749 10.07905,5.14195 9.30769,-12.68516865 9.30769,215.111385 0,185.32953 -0.19855,204.66641 -2.10905,205.39954 -3.07681,1.18068 -54.95051,0.70693 -61.22428,-0.55915 z M 0.53861921,362.1427 c 0,-0.48802 3.22951999,-7.61978 7.17669999,-15.84834 11.1807098,-23.30806 18.7597098,-47.24025 25.3065398,-79.91038 4.35045,-21.70974 4.35045,-21.70974 6.01076,-11.71353 5.66872,34.12956 10.83933,73.42255 10.83933,82.37115 0,10.05831 -0.15918,10.58957 -4.40663,14.70636 -6.20691,6.01598 -17.79657,9.78583 -32.59337,10.60187 -6.7833298,0.3741 -12.33332979,0.28089 -12.33332979,-0.20713 z M 210.8076,288.54377 C 195.76344,264.0919 169.41705,242.11441 126.08636,217.87148 87.546369,196.30887 64.848469,170.30215 52.303979,133.33333 35.415399,83.56241 46.700029,36.851071 81.010859,14.504696 88.339269,9.7317573 98.160499,5.420821 105.94252,3.5611808 108.7534,2.8894731 107.91382,4.1924906 101.12331,11.040548 87.496379,24.782962 82.586419,42.843316 86.426979,65.098215 90.442679,88.367949 100.66786,106.96413 119.91406,126 c 13.92579,13.7736 26.53648,23.11557 51.58545,38.21437 20.39463,12.2933 29.08448,18.7067 37.41753,27.61541 24.15967,25.82863 30.50543,60.2028 16.56284,89.71864 -1.84937,3.91503 -4.81674,8.86294 -6.59417,10.99535 -3.23167,3.87711 -3.23167,3.87711 -8.07811,-4 z M 167.39349,141.11089 c -8.9508,-9.15509 -10.03892,-25.85763 -2.76512,-42.444223 7.65229,-17.449681 6.04319,-27.832746 -5.54568,-35.784669 -3.771,-2.587545 -5.82717,-3.028276 -12.0861,-2.590602 -17.78696,1.243804 -29.93646,19.356527 -28.89549,43.077974 0.24064,5.48359 0.13752,9.96556 -0.22915,9.95992 -1.07924,-0.0166 -10.83453,-13.951923 -14.83097,-21.185901 C 84.700479,58.945117 92.209049,15.167011 118.15815,4.0040074 c 9.10623,-3.91739225 23.77529,-3.30678245 33.65755,1.4010179 10.09611,4.8096807 20.43534,16.0768117 27.21283,29.6550537 9.92586,19.885806 19.04859,27.594593 41.29844,34.897548 7.9747,2.617498 16.21165,9.075443 16.21165,12.710287 0,1.909272 -1.81529,2.707229 -9,3.95617 -24.63801,4.282905 -42.64582,22.045476 -51.74728,51.042576 -1.32351,4.21667 -2.82561,7.66667 -3.33801,7.66667 -0.51239,0 -2.78932,-1.9001 -5.05984,-4.22244 z"
       id="path1" />
  </g>
</svg>
